<?xml version="1.0" encoding="iso-8859-1"?>
<!-- Generator: Adobe Illustrator 22.1.0, SVG Export Plug-In . SVG Version: 6.00 Build 0)  -->
<svg xmlns="http://www.w3.org/2000/svg" xmlns:xlink="http://www.w3.org/1999/xlink" version="1.1" id="Layer_1" x="0px" y="0px" viewBox="0 0 100 100" style="enable-background:new 0 0 100 100;" xml:space="preserve" width="100px" height="100px">
<path style="fill:#C7EDE6;" d="M87.215,56.71C88.35,54.555,89,52.105,89,49.5c0-6.621-4.159-12.257-10.001-14.478  C78.999,35.015,79,35.008,79,35c0-11.598-9.402-21-21-21c-9.784,0-17.981,6.701-20.313,15.757C36.211,29.272,34.638,29,33,29  c-7.692,0-14.023,5.793-14.89,13.252C12.906,43.353,9,47.969,9,53.5C9,59.851,14.149,65,20.5,65c0.177,0,0.352-0.012,0.526-0.022  C21.022,65.153,21,65.324,21,65.5C21,76.822,30.178,86,41.5,86c6.437,0,12.175-2.972,15.934-7.614C59.612,80.611,62.64,82,66,82  c4.65,0,8.674-2.65,10.666-6.518C77.718,75.817,78.837,76,80,76c6.075,0,11-4.925,11-11C91,61.689,89.53,58.727,87.215,56.71z"/>
<path style="fill:#FFFFFF;" d="M15.5,51h-10C5.224,51,5,50.776,5,50.5S5.224,50,5.5,50h10c0.276,0,0.5,0.224,0.5,0.5  S15.777,51,15.5,51z"/>
<path style="fill:#FFFFFF;" d="M18.5,51h-1c-0.276,0-0.5-0.224-0.5-0.5s0.224-0.5,0.5-0.5h1c0.276,0,0.5,0.224,0.5,0.5  S18.777,51,18.5,51z"/>
<path style="fill:#FFFFFF;" d="M23.491,53H14.5c-0.276,0-0.5-0.224-0.5-0.5s0.224-0.5,0.5-0.5h8.991c0.276,0,0.5,0.224,0.5,0.5  S23.767,53,23.491,53z"/>
<path style="fill:#FFFFFF;" d="M12.5,53h-1c-0.276,0-0.5-0.224-0.5-0.5s0.224-0.5,0.5-0.5h1c0.276,0,0.5,0.224,0.5,0.5  S12.777,53,12.5,53z"/>
<path style="fill:#FFFFFF;" d="M9.5,53h-2C7.224,53,7,52.776,7,52.5S7.224,52,7.5,52h2c0.276,0,0.5,0.224,0.5,0.5S9.777,53,9.5,53z"/>
<path style="fill:#FFFFFF;" d="M15.5,55h-2c-0.276,0-0.5-0.224-0.5-0.5s0.224-0.5,0.5-0.5h2c0.276,0,0.5,0.224,0.5,0.5  S15.776,55,15.5,55z"/>
<path style="fill:#FFFFFF;" d="M18.5,46c-0.177,0-0.823,0-1,0c-0.276,0-0.5,0.224-0.5,0.5s0.224,0.5,0.5,0.5c0.177,0,0.823,0,1,0  c0.276,0,0.5-0.224,0.5-0.5S18.776,46,18.5,46z"/>
<path style="fill:#FFFFFF;" d="M18.5,48c-0.177,0-4.823,0-5,0c-0.276,0-0.5,0.224-0.5,0.5s0.224,0.5,0.5,0.5c0.177,0,4.823,0,5,0  c0.276,0,0.5-0.224,0.5-0.5S18.776,48,18.5,48z"/>
<path style="fill:#FFFFFF;" d="M23.5,50c-0.177,0-2.823,0-3,0c-0.276,0-0.5,0.224-0.5,0.5s0.224,0.5,0.5,0.5c0.177,0,2.823,0,3,0  c0.276,0,0.5-0.224,0.5-0.5S23.776,50,23.5,50z"/>
<path style="fill:#FFFFFF;" d="M72.5,24h-10c-0.276,0-0.5-0.224-0.5-0.5s0.224-0.5,0.5-0.5h10c0.276,0,0.5,0.224,0.5,0.5  S72.776,24,72.5,24z"/>
<path style="fill:#FFFFFF;" d="M76.5,24h-2c-0.276,0-0.5-0.224-0.5-0.5s0.224-0.5,0.5-0.5h2c0.276,0,0.5,0.224,0.5,0.5  S76.776,24,76.5,24z"/>
<path style="fill:#FFFFFF;" d="M81.5,26h-10c-0.276,0-0.5-0.224-0.5-0.5s0.224-0.5,0.5-0.5h10c0.276,0,0.5,0.224,0.5,0.5  S81.777,26,81.5,26z"/>
<path style="fill:#FFFFFF;" d="M69.5,26h-1c-0.276,0-0.5-0.224-0.5-0.5s0.224-0.5,0.5-0.5h1c0.276,0,0.5,0.224,0.5,0.5  S69.776,26,69.5,26z"/>
<path style="fill:#FFFFFF;" d="M66.47,26H64.5c-0.276,0-0.5-0.224-0.5-0.5s0.224-0.5,0.5-0.5h1.97c0.276,0,0.5,0.224,0.5,0.5  S66.746,26,66.47,26z"/>
<path style="fill:#FFFFFF;" d="M75.5,22h-5c-0.276,0-0.5-0.224-0.5-0.5s0.224-0.5,0.5-0.5h5c0.276,0,0.5,0.224,0.5,0.5  S75.777,22,75.5,22z"/>
<path style="fill:#FFFFFF;" d="M72.5,28h-2c-0.276,0-0.5-0.224-0.5-0.5s0.224-0.5,0.5-0.5h2c0.276,0,0.5,0.224,0.5,0.5  S72.776,28,72.5,28z"/>
<path style="fill:#508ECC;" d="M51.275,24.017C43.207,24.397,37,31.347,37,39.424V47h6v-7.692c0-4.794,3.617-8.979,8.401-9.289  C56.643,29.68,61,33.831,61,39c0,1.657,1.343,3,3,3s3-1.343,3-3C67,30.475,59.889,23.611,51.275,24.017z"/>
<path style="fill:#472B29;" d="M52,24c-0.241,0-0.482,0.006-0.725,0.017C43.207,24.397,37,31.347,37,39.424V47h6v-7.692  c0-4.794,3.617-8.979,8.401-9.289C51.602,30.006,51.802,30,52,30c4.971,0,9,4.029,9,9c0,1.657,1.343,3,3,3s3-1.343,3-3  C67,30.716,60.284,24,52,24z M64,40.6c-0.882,0-1.6-0.718-1.6-1.6c0-5.735-4.665-10.4-10.4-10.4c-0.228,0-0.458,0.007-0.69,0.022  c-5.445,0.353-9.711,5.046-9.711,10.686V45.6h-3.2v-6.176c0-7.513,5.684-13.666,12.941-14.008C51.562,25.405,51.781,25.4,52,25.4  c7.499,0,13.6,6.101,13.6,13.6C65.6,39.882,64.882,40.6,64,40.6z"/>
<path style="fill:#7DAFE2;" d="M67.6,45.5H36.4c-2.154,0-3.9,1.727-3.9,3.857v13.5c0,5.326,4.365,9.643,9.75,9.643h19.5  c5.385,0,9.75-4.317,9.75-9.643v-13.5C71.5,47.227,69.754,45.5,67.6,45.5z"/>
<rect x="33" y="50" style="fill:#F1BC19;" width="38" height="6.5"/>
<path style="fill:#508ECC;" d="M54,62c0-1.105-0.895-2-2-2s-2,0.895-2,2c0,0.653,0.318,1.227,0.801,1.592L50,68h4l-0.801-4.408  C53.682,63.227,54,62.653,54,62z"/>
<path style="fill:#472B29;" d="M68,45H36c-2.209,0-4,1.791-4,4v14c0,5.523,4.477,10,10,10h20c5.523,0,10-4.477,10-10V49  C72,46.791,70.209,45,68,45z M70.6,63c0,4.742-3.858,8.6-8.6,8.6H42c-4.742,0-8.6-3.858-8.6-8.6V49c0-1.434,1.166-2.6,2.6-2.6h32  c1.434,0,2.6,1.166,2.6,2.6V63z"/>
<path style="fill:#472B29;" d="M71,50h-3.5c-0.276,0-0.5,0.224-0.5,0.5s0.224,0.5,0.5,0.5H71c0.276,0,0.5-0.224,0.5-0.5  S71.276,50,71,50z"/>
<path style="fill:#472B29;" d="M64.5,51h-2c-0.276,0-0.5-0.224-0.5-0.5s0.224-0.5,0.5-0.5h2c0.276,0,0.5,0.224,0.5,0.5  S64.776,51,64.5,51z"/>
<path style="fill:#472B29;" d="M59.5,51H33c-0.276,0-0.5-0.224-0.5-0.5S32.724,50,33,50h26.5c0.276,0,0.5,0.224,0.5,0.5  S59.776,51,59.5,51z"/>
<path style="fill:#472B29;" d="M71,57H33c-0.276,0-0.5-0.224-0.5-0.5S32.724,56,33,56h38c0.276,0,0.5,0.224,0.5,0.5S71.276,57,71,57  z"/>
<path style="fill:#472B29;" d="M52,60.35c0.91,0,1.65,0.74,1.65,1.65c0,0.517-0.241,0.995-0.662,1.313  c-0.106,0.08-0.157,0.212-0.134,0.342l0.726,3.995h-3.161l0.726-3.995c0.024-0.13-0.028-0.262-0.134-0.342  c-0.42-0.318-0.661-0.796-0.661-1.313C50.35,61.09,51.09,60.35,52,60.35 M52,60c-1.105,0-2,0.895-2,2  c0,0.653,0.318,1.227,0.801,1.592L50,68h4l-0.801-4.408C53.682,63.227,54,62.653,54,62C54,60.895,53.105,60,52,60L52,60z"/>
<rect x="31.441" y="53.322" transform="matrix(0.5738 -0.819 0.819 0.5738 -28.852 51.5522)" style="fill:#472B29;" width="7.33" height="0.351"/>
<rect x="35.231" y="53.322" transform="matrix(0.5738 -0.819 0.819 0.5738 -27.2367 54.656)" style="fill:#472B29;" width="7.33" height="0.351"/>
<rect x="38.94" y="53.322" transform="matrix(0.5738 -0.819 0.819 0.5738 -25.6554 57.6943)" style="fill:#472B29;" width="7.33" height="0.351"/>
<rect x="42.73" y="53.321" transform="matrix(0.5738 -0.819 0.819 0.5738 -24.0401 60.7982)" style="fill:#472B29;" width="7.33" height="0.351"/>
<rect x="46.44" y="53.321" transform="matrix(0.5738 -0.819 0.819 0.5738 -22.4588 63.8364)" style="fill:#472B29;" width="7.33" height="0.351"/>
<rect x="50.23" y="53.321" transform="matrix(0.5738 -0.819 0.819 0.5738 -20.8435 66.9403)" style="fill:#472B29;" width="7.33" height="0.351"/>
<rect x="53.94" y="53.321" transform="matrix(0.5738 -0.819 0.819 0.5738 -19.2622 69.9787)" style="fill:#472B29;" width="7.33" height="0.351"/>
<rect x="57.73" y="53.321" transform="matrix(0.5738 -0.819 0.819 0.5738 -17.647 73.0825)" style="fill:#472B29;" width="7.33" height="0.351"/>
<rect x="61.44" y="53.321" transform="matrix(0.5738 -0.819 0.819 0.5738 -16.0656 76.1208)" style="fill:#472B29;" width="7.33" height="0.351"/>
<rect x="65.23" y="53.321" transform="matrix(0.5738 -0.819 0.819 0.5738 -14.4503 79.2247)" style="fill:#472B29;" width="7.33" height="0.351"/>
<path style="fill:#FDFCEF;" d="M87,67.5c-0.187,0-0.364,0.033-0.545,0.055C86.234,65.835,84.781,64.5,83,64.5  c-1.087,0-2.045,0.505-2.687,1.282c0.11-0.412,0.187-0.836,0.187-1.282c0-2.761-2.239-5-5-5c-2.671,0-4.833,2.1-4.973,4.736  C69.703,63.186,68.438,62.5,67,62.5c-2.485,0-4.5,2.015-4.5,4.5c0,0.187,0.033,0.364,0.055,0.545C60.282,67.771,58.5,69.667,58.5,72  c0,2.485,2.015,4.5,4.5,4.5s7.125,0,7.125,0H77.5c0,0,7.015,0,9.5,0s4.5-2.015,4.5-4.5S89.485,67.5,87,67.5z"/>
<path style="fill:#472B29;" d="M87,67c-0.048,0-0.095,0.002-0.142,0.005C86.411,65.261,84.831,64,83,64c-0.71,0-1.398,0.192-2,0.547  c0-0.016,0-0.031,0-0.047c0-3.033-2.467-5.5-5.5-5.5c-2.555,0-4.719,1.76-5.317,4.164C69.293,62.416,68.176,62,67,62  c-2.757,0-5,2.243-5,5c0,0.041,0.001,0.082,0.003,0.123C59.689,67.587,58,69.603,58,72c0,2.757,2.243,5,5,5h6.5  c0.276,0,0.5-0.224,0.5-0.5S69.776,76,69.5,76H63c-2.206,0-4-1.794-4-4c0-2.051,1.549-3.753,3.605-3.958  c0.133-0.013,0.256-0.08,0.34-0.185s0.122-0.239,0.106-0.373l-0.019-0.141C63.017,67.23,63,67.117,63,67c0-2.206,1.794-4,4-4  c1.221,0,2.362,0.563,3.133,1.545c0.096,0.123,0.242,0.192,0.392,0.192c0.051,0,0.102-0.008,0.152-0.024  c0.199-0.063,0.338-0.242,0.349-0.45C71.153,61.872,73.119,60,75.5,60c2.481,0,4.5,2.019,4.5,4.5c0,0.352-0.054,0.718-0.169,1.153  c-0.06,0.227,0.045,0.466,0.254,0.573c0.072,0.038,0.15,0.056,0.228,0.056c0.145,0,0.288-0.064,0.386-0.182  C81.277,65.401,82.115,65,83,65c1.496,0,2.768,1.125,2.959,2.618c0.033,0.252,0.249,0.437,0.495,0.437  c0.021,0,0.041-0.001,0.062-0.004l0.141-0.019C86.77,68.017,86.883,68,87,68c2.206,0,4,1.794,4,4s-1.794,4-4,4H72.5  c-0.276,0-0.5,0.224-0.5,0.5s0.224,0.5,0.5,0.5H87c2.757,0,5-2.243,5-5S89.757,67,87,67z"/>
<path style="fill:#472B29;" d="M84.062,70c-0.188,0-0.381,0.022-0.584,0.068C83.323,68.897,82.327,68,81.125,68  c-0.426,0-0.845,0.119-1.212,0.341C79.609,66.999,78.403,66,77,66c-0.256,0-0.517,0.04-0.819,0.126  c-0.133,0.038-0.21,0.176-0.172,0.309c0.032,0.109,0.13,0.182,0.239,0.182c0.023,0,0.047-0.003,0.07-0.01  C76.575,66.534,76.792,66.5,77,66.5c1.288,0,2.377,1.012,2.481,2.305c0.007,0.095,0.067,0.177,0.155,0.212  c0.03,0.013,0.061,0.019,0.093,0.019c0.059,0,0.118-0.022,0.165-0.063c0.346-0.305,0.784-0.473,1.231-0.473  c1.034,0,1.875,0.841,1.875,1.875c0,0.08,0.038,0.162,0.102,0.208c0.046,0.034,0.101,0.054,0.156,0.054  c0.022,0,0.045-0.003,0.067-0.01c0.268-0.085,0.509-0.127,0.738-0.127c1.268,0,2.33,0.997,2.419,2.268  C86.491,72.899,86.601,73,86.731,73c0.006,0,0.012,0,0.018,0c0.137-0.01,0.241-0.13,0.231-0.268C86.873,71.2,85.591,70,84.062,70z"/>
<path style="fill:#472B29;" d="M63.117,67.5c1.326,0,2.508,0.897,2.874,2.182c0.038,0.133-0.039,0.271-0.172,0.309  C65.795,69.997,65.772,70,65.75,70c-0.109,0-0.209-0.072-0.24-0.182C65.205,68.748,64.221,68,63.117,68  c-0.117,0-0.23,0.014-0.342,0.029c-0.012,0.002-0.023,0.003-0.035,0.003c-0.121,0-0.229-0.092-0.246-0.217  c-0.019-0.137,0.077-0.263,0.214-0.281C62.842,67.516,62.978,67.5,63.117,67.5L63.117,67.5z"/>
<path style="fill:#FDFCEF;" d="M36.445,60.545C36.473,60.366,36.5,60.187,36.5,60c0-1.933-1.567-3.5-3.5-3.5  c-1.032,0-1.95,0.455-2.59,1.165c-0.384-1.808-1.987-3.165-3.91-3.165c-2.209,0-4,1.791-4,4c0,0.191,0.03,0.374,0.056,0.558  C22.128,58.714,21.592,58.5,21,58.5c-1.228,0-2.245,0.887-2.455,2.055C18.366,60.527,18.187,60.5,18,60.5  c-1.933,0-3.5,1.567-3.5,3.5s1.567,3.5,3.5,3.5s7.5,0,7.5,0h7c0,0,1.567,0,3.5,0s3.5-1.567,3.5-3.5  C39.5,62.219,38.165,60.766,36.445,60.545z"/>
<path style="fill:#472B29;" d="M34.25,63C34.112,63,34,62.888,34,62.75c0-1.223,0.995-2.218,2.218-2.218  c0.034,0.009,0.737-0.001,1.244,0.136c0.133,0.036,0.212,0.173,0.176,0.306c-0.036,0.134-0.173,0.213-0.306,0.176  c-0.444-0.12-1.1-0.12-1.113-0.118c-0.948,0-1.719,0.771-1.719,1.718C34.5,62.888,34.388,63,34.25,63z"/>
<circle style="fill:#472B29;" cx="27.5" cy="67.5" r="0.5"/>
<path style="fill:#472B29;" d="M36.996,60.142C36.999,60.095,37,60.048,37,60c0-2.206-1.794-4-4-4c-0.845,0-1.666,0.276-2.347,0.774  C29.966,55.127,28.331,54,26.5,54c-2.374,0-4.324,1.847-4.489,4.18C21.689,58.061,21.349,58,21,58c-1.289,0-2.412,0.82-2.826,2.006  C18.116,60.002,18.059,60,18,60c-2.206,0-4,1.794-4,4s1.794,4,4,4h7.5c0.276,0,0.5-0.224,0.5-0.5S25.776,67,25.5,67H18  c-1.654,0-3-1.346-3-3s1.346-3,3-3c0.16,0,0.314,0.025,0.468,0.049c0.273,0.041,0.521-0.138,0.569-0.405  C19.208,59.691,20.034,59,21,59c0.449,0,0.878,0.155,1.243,0.448c0.16,0.128,0.377,0.112,0.556,0.01s0.271-0.337,0.242-0.54  C23.021,58.78,23,58.643,23,58.5c0-1.93,1.57-3.5,3.5-3.5c1.641,0,3.08,1.165,3.421,2.769c0.039,0.184,0.178,0.33,0.36,0.379  c0.179,0.05,0.375-0.009,0.5-0.148c0.581-0.645,1.369-1,2.219-1c1.654,0,3,1.346,3,3c0,0.16-0.025,0.314-0.048,0.468  c-0.021,0.133,0.013,0.269,0.094,0.377c0.081,0.108,0.202,0.178,0.336,0.196C37.875,61.232,39,62.504,39,64c0,1.654-1.346,3-3,3  h-3.5c-0.276,0-0.5,0.224-0.5,0.5s0.224,0.5,0.5,0.5H36c2.206,0,4-1.794,4-4C40,62.169,38.739,60.59,36.996,60.142z"/>
<path style="fill:#472B29;" d="M30.5,67c-0.159,0-0.841,0-1,0c-0.276,0-0.5,0.224-0.5,0.5s0.224,0.5,0.5,0.5c0.159,0,0.841,0,1,0  c0.276,0,0.5-0.224,0.5-0.5S30.776,67,30.5,67z"/>
</svg>
