<?xml version="1.0" encoding="utf-8"?>
<!-- Generator: Adobe Illustrator 16.0.0, SVG Export Plug-In . SVG Version: 6.00 Build 0)  -->
<!DOCTYPE svg PUBLIC "-//W3C//DTD SVG 1.1//EN" "http://www.w3.org/Graphics/SVG/1.1/DTD/svg11.dtd">
<svg xmlns="http://www.w3.org/2000/svg" xmlns:xlink="http://www.w3.org/1999/xlink" version="1.1" id="Layer_1" x="0px" y="0px" width="100px" height="100px" viewBox="0 0 512 512" enable-background="new 0 0 512 512" xml:space="preserve">
<g>
	<g>
		<path fill="#E5AA17" d="M7.9,256C7.9,119,119,7.9,256,7.9C393,7.9,504.1,119,504.1,256c0,137-111.1,248.1-248.1,248.1    C119,504.1,7.9,393,7.9,256z"/>
	</g>
</g>
<g>
	<rect x="133.7" y="240.2" fill="#FFFFFF" width="244.6" height="159.8"/>
	<g>
		<path fill="#FFFFFF" d="M349.7,340.1c-7.7,0-14-6.3-14-14v-136c0-44-35.8-79.8-79.8-79.8s-79.8,35.8-79.8,79.8v136    c0,7.7-6.3,14-14,14s-14-6.3-14-14v-136c0-59.4,48.3-107.7,107.7-107.7s107.7,48.3,107.7,107.7v136    C363.7,333.9,357.4,340.1,349.7,340.1z"/>
	</g>
	<path fill="#E5AA17" d="M282.6,309.3c0-14.7-11.9-26.6-26.6-26.6c-14.7,0-26.6,11.9-26.6,26.6c0,9.4,4.8,17.6,12.1,22.3   c0,4.2,0,9.4,0,11.5c0,8,6.5,14.5,14.5,14.5s14.5-6.5,14.5-14.5c0-2,0-7.2,0-11.5C277.8,326.9,282.6,318.6,282.6,309.3z"/>
</g>
</svg>
