<?xml version="1.0" encoding="iso-8859-1"?>
<!-- Generator: Adobe Illustrator 22.1.0, SVG Export Plug-In . SVG Version: 6.00 Build 0)  -->
<svg xmlns="http://www.w3.org/2000/svg" xmlns:xlink="http://www.w3.org/1999/xlink" version="1.1" id="Layer_1" x="0px" y="0px" viewBox="0 0 100 100" style="enable-background:new 0 0 100 100;" xml:space="preserve" width="200px" height="200px">
<g>
	<g>
		<circle style="fill:#F1BC19;" cx="78" cy="14" r="1"/>
		<circle style="fill:#FCE0A2;" cx="50" cy="50" r="38"/>
		<circle style="fill:#F1BC19;" cx="84" cy="16" r="4"/>
		<circle style="fill:#EE3E54;" cx="14" cy="26" r="2"/>
		<circle style="fill:#FBCD59;" cx="78" cy="77" r="2"/>
		<circle style="fill:#FBCD59;" cx="17" cy="78" r="4"/>
		<circle style="fill:#EE3E54;" cx="24" cy="83" r="2"/>
		<circle style="fill:#FFFFFF;" cx="66.483" cy="78.517" r="2.483"/>
		<circle style="fill:#FFFFFF;" cx="16" cy="48" r="1"/>
		<circle style="fill:#F1BC19;" cx="86" cy="31" r="1"/>
		<circle style="fill:#FFFFFF;" cx="80" cy="66" r="2"/>
	</g>
</g>
<path style="fill:#508ECC;" d="M34.725,23.017C42.793,23.397,49,30.347,49,38.424V46h-6v-7.692c0-4.794-3.617-8.979-8.401-9.289  C29.357,28.68,25,32.831,25,38c0,1.657-1.343,3-3,3s-3-1.343-3-3C19,29.475,26.111,22.611,34.725,23.017z"/>
<path style="fill:#472B29;" d="M34,24.4c0.219,0,0.438,0.005,0.659,0.016C41.916,24.757,47.6,30.91,47.6,38.424V44.6h-3.2v-6.292  c0-5.64-4.265-10.333-9.711-10.686C34.458,27.607,34.228,27.6,34,27.6c-5.735,0-10.4,4.665-10.4,10.4c0,0.882-0.718,1.6-1.6,1.6  s-1.6-0.718-1.6-1.6C20.4,30.501,26.501,24.4,34,24.4 M34,23c-8.284,0-15,6.716-15,15c0,1.657,1.343,3,3,3s3-1.343,3-3  c0-4.971,4.029-9,9-9c0.198,0,0.398,0.006,0.599,0.019C39.383,29.329,43,33.515,43,38.308V46h6v-7.576  c0-8.077-6.207-15.027-14.275-15.407C34.482,23.006,34.241,23,34,23L34,23z"/>
<path style="fill:#7DAFE2;" d="M66,72H46c-5.523,0-10-4.477-10-10V48c0-2.209,1.791-4,4-4h32c2.209,0,4,1.791,4,4v14  C76,67.523,71.523,72,66,72z"/>
<path style="fill:#7DAFE2;" d="M66,72H46c-5.523,0-10-4.477-10-10V48c0-2.209,1.791-4,4-4h32c2.209,0,4,1.791,4,4v14  C76,67.523,71.523,72,66,72z"/>
<rect x="37" y="49" style="fill:#F1BC19;" width="38" height="6.5"/>
<path style="fill:#508ECC;" d="M58,61c0-1.105-0.895-2-2-2s-2,0.895-2,2c0,0.653,0.318,1.227,0.801,1.592L54,67h4l-0.801-4.408  C57.682,62.227,58,61.653,58,61z"/>
<path style="fill:#472B29;" d="M72,45.4c1.434,0,2.6,1.166,2.6,2.6v14c0,4.742-3.858,8.6-8.6,8.6H46c-4.742,0-8.6-3.858-8.6-8.6V48  c0-1.434,1.166-2.6,2.6-2.6H72 M72,44H40c-2.209,0-4,1.791-4,4v14c0,5.523,4.477,10,10,10h20c5.523,0,10-4.477,10-10V48  C76,45.791,74.209,44,72,44L72,44z"/>
<path style="fill:#472B29;" d="M75,50h-3.5c-0.276,0-0.5-0.224-0.5-0.5s0.224-0.5,0.5-0.5H75c0.276,0,0.5,0.224,0.5,0.5  S75.276,50,75,50z"/>
<path style="fill:#472B29;" d="M68.5,50h-2c-0.276,0-0.5-0.224-0.5-0.5s0.224-0.5,0.5-0.5h2c0.276,0,0.5,0.224,0.5,0.5  S68.776,50,68.5,50z"/>
<path style="fill:#472B29;" d="M63.5,50H37c-0.276,0-0.5-0.224-0.5-0.5S36.724,49,37,49h26.5c0.276,0,0.5,0.224,0.5,0.5  S63.776,50,63.5,50z"/>
<path style="fill:#472B29;" d="M75,56H37c-0.276,0-0.5-0.224-0.5-0.5S36.724,55,37,55h38c0.276,0,0.5,0.224,0.5,0.5S75.276,56,75,56  z"/>
<path style="fill:#472B29;" d="M56,59.35c0.91,0,1.65,0.74,1.65,1.65c0,0.517-0.241,0.995-0.662,1.313  c-0.106,0.08-0.157,0.212-0.134,0.342l0.726,3.995h-3.161l0.726-3.995c0.024-0.13-0.028-0.262-0.134-0.342  C54.591,61.995,54.35,61.517,54.35,61C54.35,60.09,55.09,59.35,56,59.35 M56,59c-1.105,0-2,0.895-2,2  c0,0.653,0.318,1.227,0.801,1.592L54,67h4l-0.801-4.408C57.682,62.227,58,61.653,58,61C58,59.895,57.105,59,56,59L56,59z"/>
<rect x="35.44" y="52.325" transform="matrix(0.5738 -0.819 0.819 0.5738 -26.3308 54.3994)" style="fill:#472B29;" width="7.33" height="0.351"/>
<rect x="39.23" y="52.325" transform="matrix(0.5738 -0.819 0.819 0.5738 -24.7156 57.5033)" style="fill:#472B29;" width="7.33" height="0.351"/>
<rect x="42.94" y="52.325" transform="matrix(0.5738 -0.819 0.819 0.5738 -23.1346 60.5417)" style="fill:#472B29;" width="7.33" height="0.351"/>
<rect x="46.73" y="52.325" transform="matrix(0.5738 -0.819 0.819 0.5738 -21.5194 63.6456)" style="fill:#472B29;" width="7.33" height="0.351"/>
<rect x="50.44" y="52.325" transform="matrix(0.5738 -0.819 0.819 0.5738 -19.9383 66.684)" style="fill:#472B29;" width="7.33" height="0.351"/>
<rect x="54.23" y="52.325" transform="matrix(0.5738 -0.819 0.819 0.5738 -18.3232 69.7879)" style="fill:#472B29;" width="7.33" height="0.351"/>
<rect x="57.94" y="52.325" transform="matrix(0.5738 -0.819 0.819 0.5738 -16.7421 72.8262)" style="fill:#472B29;" width="7.33" height="0.351"/>
<rect x="61.73" y="52.325" transform="matrix(0.5738 -0.819 0.819 0.5738 -15.1269 75.9302)" style="fill:#472B29;" width="7.33" height="0.351"/>
<rect x="65.44" y="52.325" transform="matrix(0.5738 -0.819 0.819 0.5738 -13.5459 78.9685)" style="fill:#472B29;" width="7.33" height="0.351"/>
<rect x="69.23" y="52.325" transform="matrix(0.5738 -0.819 0.819 0.5738 -11.9307 82.0724)" style="fill:#472B29;" width="7.33" height="0.351"/>
</svg>
